<svg width="1744" height="1723" viewBox="0 0 1744 1723" fill="none" xmlns="http://www.w3.org/2000/svg">
<path d="M1084.91 1074.72C985.843 1371.63 721.203 1463.32 581.27 1094.54C562.027 1043.83 612.342 1024.95 647.529 1002.63C671.631 987.348 684.292 974.093 682.823 960.426C675.896 895.951 645.902 716.572 645.902 716.572L642.852 710.793C642.852 710.793 643.583 709.173 640.712 712.038C637.719 715.025 630.818 746.214 603.621 746.214C579.237 746.214 554.482 735.314 542.636 659.886C538.348 632.589 540.781 561.025 570.989 548.102C583.471 542.763 594.987 540.854 606.221 547.263C617.456 553.671 593.26 525.357 718.208 421.232C799.426 353.549 927.717 343.629 979.483 355.057C1031.25 366.484 1083.02 391.824 1105.91 445.483C1133.69 510.593 1080.03 559.759 1091.82 708.042C1089.67 761.617 1092.74 879.198 945.313 918.607C917.313 926.093 926 967 968 977C1035 998 1084.96 1049.27 1084.96 1074.86" fill="white"/>
<path fill-rule="evenodd" clip-rule="evenodd" d="M1084.94 613.2L1085.1 611.806C1089.24 575.399 1093.26 540.118 1112.24 508.429C1118.7 512.85 1117.95 518.452 1115.93 523.643C1096.01 574.846 1097.84 628.04 1099.67 681.206C1099.83 685.863 1099.99 690.519 1100.14 695.174C1102.22 761.601 1085.65 821.988 1041.35 872.736C1025.98 890.348 1005.63 902.464 984.854 913.045C963.515 923.912 959.03 933.132 965.687 956.599C965.93 957.455 966.229 958.315 966.529 959.178C967.892 963.1 969.273 967.073 965.487 970.95C960.965 975.58 956.026 974.259 950.683 972.83C950.48 972.776 950.277 972.721 950.074 972.667C899.733 959.241 854.697 935.154 813.056 904.393C807.139 900.023 802.272 894.061 797.561 888.29L797.561 888.29L797.256 887.916C794.776 884.879 794.338 880.141 797.807 877.462C801.054 874.955 803.609 877.011 806.452 879.298C806.815 879.59 807.182 879.886 807.556 880.176C830.027 897.614 854.773 909.063 883.768 911.943C897.176 913.276 910.448 912.784 923.708 912.293H923.708H923.709C931.17 912.017 938.626 911.741 946.101 911.79C956.34 911.857 964.752 907.107 972.761 902.584C973.712 902.047 974.658 901.513 975.601 900.99C1003.45 885.545 1029.88 868.229 1047.84 840.331C1063.92 815.331 1073.67 788.1 1079.4 759.443C1086.65 723.27 1085.99 686.701 1085.32 649.621C1085.11 637.536 1084.89 625.397 1084.94 613.2ZM581.684 537.824C603.577 536.064 615.771 549.033 626.037 564.053C638.664 582.526 645.39 603.465 648.37 625.572C648.87 629.28 649.389 633.223 647.152 636.856C642.737 637.45 642.319 633.946 642.252 631.317C641.696 610.644 632.526 592.61 623.308 575.156C616.73 562.704 607.059 550.64 591.943 547.577C574.71 544.084 558.858 559.566 551.067 579.842C536.636 617.398 539.029 654.36 552.455 690.759C558.33 706.687 565.648 722.913 580.303 734.026C595.142 745.28 613.008 743.295 623.903 728.349C624.526 727.495 625.184 726.649 625.845 725.801L625.845 725.801L625.845 725.801C627.841 723.238 629.853 720.656 630.928 717.749C633.035 712.049 636.256 706.629 642.155 707.423C648.978 708.342 650.271 715.729 650.909 721.499C656.707 773.928 664.758 826.024 672.81 878.126L672.81 878.126C674.808 891.053 676.806 903.981 678.769 916.913C681.369 934.023 684.381 958.598 682.361 969.05C682.219 969.792 682.136 970.523 682.058 971.222C681.749 973.958 681.496 976.21 677.906 976.75C673.034 977.484 670.831 974.66 670.233 970.28C667.913 953.274 667.273 946.747 666.275 920.735C665.308 895.519 660.569 870.665 655.83 845.816L655.83 845.815C654.111 836.8 652.392 827.785 650.853 818.753C645.613 787.996 640.483 756.802 640.022 721.777C639.326 722.808 638.644 723.825 637.974 724.826C630.426 736.096 624.264 745.295 613.48 748.877C595.58 754.827 579.917 750.422 567.371 736.277C553.071 720.155 543.783 701.808 538.558 680.498C530.244 646.587 528.704 613.368 539.487 579.853C544.655 563.774 563.189 535.208 581.684 537.824ZM616.346 665.326C620.717 668.467 624.679 671.316 628.334 659.948C627.158 617.652 613.6 590.654 592.472 589.632C603.747 604.197 614.559 618.413 615.472 638.132C610.742 635.978 607.7 632.59 604.784 629.342C602.753 627.08 600.784 624.886 598.348 623.226C597.31 622.519 596.295 621.736 595.271 620.946C590.544 617.301 585.636 613.516 577.471 616.357C581.301 622.187 586.575 626.302 591.799 630.377C597.832 635.084 603.798 639.738 607.392 646.919C596.777 654.561 592.209 664.62 597.718 676.761C602.497 687.296 609.565 696 623.565 696.635C623.043 690.311 618.868 685.708 614.812 681.235C609.879 675.796 605.121 670.55 607.316 662.635C610.515 661.134 613.516 663.291 616.346 665.326Z" fill="black"/>
<path d="M1524 1605L158.995 1601.7C158.995 1601.7 170.345 1504.74 203.209 1412.55C244.263 1297.38 310.078 1180.69 327.774 1166.46C348.592 1149.71 316.226 1148.25 331.229 1125.3C364.629 1074.19 477.735 1027.81 510.494 1011.15C568.979 981.405 674.802 963.409 674.802 963.409L701.934 1016.88C701.934 1016.88 765.249 1038.79 840.104 1041.26C880.46 1042.59 974.079 1011.79 974.079 1011.79L962.93 954C962.93 954 1131.96 988.832 1215.49 1039.61C1263.65 1068.89 1323.72 1114.6 1325.16 1140.85C1327.34 1180.55 1326.91 1177.55 1349.18 1192.67C1402.47 1228.87 1447.61 1314.62 1469.99 1383.91C1487.5 1438.14 1524 1605 1524 1605Z" fill="white"/>
<path fill-rule="evenodd" clip-rule="evenodd" d="M478.282 1480.38C498.697 1521.03 519.132 1561.72 534.049 1605C540.691 1605 546.159 1605 551.747 1604.04C550.314 1600.32 548.905 1596.62 547.504 1592.94C541.278 1576.59 535.215 1560.66 527.954 1545.25C516.79 1521.56 505.304 1498.01 493.817 1474.46C484.483 1455.32 475.148 1436.19 465.987 1416.97C462.149 1408.93 459.972 1400.13 464.66 1391.19C471.388 1378.38 477.194 1365.17 483.003 1351.96C484.72 1348.05 486.437 1344.14 488.178 1340.25C499.111 1315.78 512.601 1292.56 526.096 1269.34C536.653 1251.16 547.212 1232.99 556.552 1214.21C564.601 1198.03 562.092 1189.83 544.492 1184.26C541.133 1183.14 537.651 1182.4 534.114 1182.05C525.536 1181.33 516.936 1180.82 508.338 1180.32C481.976 1178.77 455.627 1177.22 429.946 1169.46C422.045 1167.07 413.789 1165.76 405.531 1164.44C397.517 1163.17 389.5 1161.9 381.804 1159.64C380.284 1159.19 378.753 1158.75 377.219 1158.31C362.471 1154.07 347.31 1149.71 335.906 1137.98C336.561 1137.12 337.129 1136.34 337.649 1135.63C338.643 1134.27 339.464 1133.15 340.387 1132.1C365.785 1103.4 399.12 1085.17 432.353 1067C439.045 1063.34 445.732 1059.68 452.349 1055.94C472.516 1044.54 493.58 1034.59 514.639 1024.63C522.556 1020.89 530.472 1017.15 538.34 1013.33C558.051 1003.77 577.897 994.733 599.253 988.482C609.875 985.373 620.628 982.89 631.373 980.408C639.14 978.615 646.901 976.822 654.606 974.795C674.642 969.524 678.273 970.8 683.46 990.536C686.454 1001.93 689.512 1013.31 692.57 1024.69C702.085 1060.1 711.602 1095.51 719.194 1131.29C727.893 1172.02 733.629 1213.27 736.36 1254.76C737.884 1278.4 740.539 1301.96 743.194 1325.52C746.817 1357.68 750.44 1389.83 751.188 1422.18C751.668 1442.96 750.996 1463.77 750.324 1484.57C750.01 1494.27 749.697 1503.97 749.5 1513.67C749.227 1527.11 747.713 1540.46 746.199 1553.79C744.268 1570.81 742.338 1587.82 742.992 1604.99C749.638 1604.99 755.101 1604.99 760.73 1603.8C760.993 1598.27 761.133 1592.87 761.271 1587.56C761.533 1577.45 761.787 1567.67 762.863 1557.98C768.52 1507.05 767.691 1455.96 766.587 1404.95C765.832 1371.43 763.033 1337.97 758.204 1304.76C755.667 1287.23 754.667 1269.61 753.666 1251.97C752.359 1228.94 751.052 1205.89 746.314 1183.05C743.952 1171.66 741.832 1160.22 739.713 1148.78C735.88 1128.09 732.047 1107.4 726.775 1086.97C726.52 1085.99 726.117 1085 725.714 1084.02C724.483 1081.02 723.26 1078.04 726.335 1075.11C730.373 1071.25 735.425 1072.38 740.209 1073.66C781.258 1084.69 823.04 1087.57 865.434 1084.34C896.901 1081.94 927.979 1078.46 956.887 1064.78C965.502 1060.71 972.309 1063.29 974.168 1073.81C975.158 1079.4 975.899 1085.05 976.639 1090.69C977.675 1098.59 978.707 1106.46 980.416 1114.12C988.186 1148.88 990.289 1184.08 992.392 1219.28C993.355 1235.4 994.318 1251.52 995.825 1267.59C996.956 1279.67 997.799 1291.78 998.642 1303.89C999.657 1318.47 1000.67 1333.05 1002.19 1347.58C1008.53 1408.3 1006.92 1469.09 1004.91 1529.9C1004.69 1536.56 1004.43 1543.22 1004.18 1549.88C1003.47 1568.26 1002.77 1586.63 1002.81 1605C1008.55 1605 1013.14 1605 1018.13 1604C1018.4 1602.14 1018.68 1600.33 1018.95 1598.55C1019.94 1592.1 1020.86 1586.14 1020.95 1580.17C1021.19 1565.3 1021.24 1550.42 1021.3 1535.55C1021.4 1507.45 1021.5 1479.35 1022.82 1451.3C1024.51 1414.3 1023.45 1377.23 1019.65 1340.37C1016.99 1314.15 1015.18 1287.88 1013.36 1261.63C1011.69 1237.46 1010.02 1213.29 1007.69 1189.17C1003.25 1143.15 997.238 1097.25 987.297 1051.91C982.759 1031.22 978.747 1010.42 974.735 989.62C974.321 987.476 973.907 985.331 973.493 983.187C973.029 980.781 973.078 978.288 973.128 975.792C973.155 974.426 973.182 973.059 973.125 971.705C972.856 965.431 975.796 963.342 982.228 964.577C1008.81 969.68 1035.4 974.958 1061.06 983.374C1082.07 990.263 1102.61 998.348 1123.14 1006.43C1130.48 1009.32 1137.81 1012.21 1145.16 1015.04C1197.49 1035.2 1244.75 1062.79 1285.66 1099.84C1298.49 1111.46 1309.66 1124.9 1317.24 1140.41C1321.77 1149.67 1316.94 1159.58 1307.69 1161.44C1304.63 1162.05 1301.57 1162.66 1298.51 1163.27C1275.9 1167.75 1253.33 1172.23 1231.23 1178.96C1196.87 1189.26 1165.27 1206.6 1138.66 1229.78C1131.07 1236.36 1129.91 1244.47 1134.09 1253.01C1138.05 1261.08 1142.52 1268.96 1147.3 1276.62C1153.06 1285.84 1159 1294.96 1164.93 1304.08C1179.76 1326.88 1194.59 1349.67 1206.69 1374.01C1209.98 1380.62 1210.78 1387.06 1206.49 1392.03C1197.11 1402.91 1189.7 1414.96 1182.3 1427.01C1176.93 1435.74 1171.56 1444.48 1165.44 1452.75C1144.36 1480.98 1126.46 1511.25 1112.03 1543.07C1108.48 1551 1105.43 1559.14 1102.4 1567.26C1097.55 1580.22 1092.73 1593.12 1085.88 1605H1085.89C1093.42 1605 1099.77 1605 1106.41 1604.05C1117.13 1571.04 1129.9 1539.84 1147.79 1510.92C1170.7 1473.86 1195.07 1437.66 1219.85 1401.69C1226.07 1392.65 1229.53 1382.9 1223.67 1370.63C1215.67 1353.89 1206.18 1338.03 1196.7 1322.18L1196.3 1321.51C1182.49 1298.44 1167.69 1275.89 1152.79 1253.45C1148.05 1246.31 1150.56 1241.46 1155.77 1236.68C1167.99 1225.47 1182.31 1216.82 1197.35 1209.98C1229.83 1195.2 1263.77 1184.82 1299.8 1180.26C1312.6 1178.64 1322.05 1181.04 1331.79 1187.93C1366.17 1212.22 1396.07 1238.88 1414.01 1278.16C1416.86 1284.41 1419.75 1290.65 1422.64 1296.89C1435.44 1324.53 1448.22 1352.14 1458.07 1380.83C1470.2 1416.18 1481.35 1451.79 1489.88 1488.28C1493 1501.61 1495.99 1514.96 1498.99 1528.32C1504.72 1553.89 1510.46 1579.48 1517.08 1605C1521.92 1605 1525.64 1605 1529 1604.09C1523.74 1582.42 1519.99 1560.69 1516.24 1539.04C1511.56 1511.97 1506.91 1485.04 1499.39 1458.58C1498.88 1456.81 1498.38 1455.04 1497.88 1453.26C1491.3 1430.1 1484.72 1406.9 1476.86 1384.21C1462.5 1342.77 1445.66 1302.13 1425.15 1263C1406.97 1228.32 1379.5 1201.58 1347.65 1178.14C1346.24 1177.1 1344.49 1176.2 1342.68 1175.28C1336.65 1172.19 1329.98 1168.77 1332.99 1158.52C1338.15 1140.92 1334.8 1124.83 1319.39 1112.17C1315.88 1109.29 1312.86 1105.87 1309.84 1102.45C1308.87 1101.35 1307.89 1100.25 1306.9 1099.16C1265.57 1053.9 1211.38 1026.69 1155.6 1002.22C1119.3 986.3 1081.34 974.065 1043.37 962.219C1019.76 954.852 995.571 949.002 970.656 947.103C957.935 946.133 952.644 952.011 954.24 964.033C954.634 966.997 954.953 969.977 955.272 972.957C955.997 979.726 956.722 986.496 958.321 993.072C961.017 1004.17 955.119 1010.21 946.23 1014.21C924.331 1024.05 901.111 1031.53 877.195 1033.03C824.52 1036.32 772.198 1033.69 721.717 1016.13C713.299 1013.2 708.475 1008.73 704.898 1001.38C702.449 996.342 700.261 991.209 698.071 986.072C694.751 978.283 691.427 970.486 687.187 963.013C681.778 953.481 675.425 951.301 665.611 954.457C659.292 956.465 652.871 958.169 646.373 959.562C610.93 967.3 575.77 976.044 543.105 991.947C497.271 1014.26 451.699 1037.03 407.511 1062.24C377.424 1079.41 347.725 1096.96 325.221 1123.53C319.032 1130.84 317.712 1138 322.644 1145.67C326.854 1152.21 326.519 1157.24 320.68 1162.63C311.274 1171.31 304.58 1182.09 298.008 1192.68C296.226 1195.55 294.453 1198.4 292.637 1201.2C271.726 1233.14 253.059 1266.38 236.761 1300.69C224.572 1326.59 214.077 1353.11 204.503 1380C204.174 1380.93 203.845 1381.85 203.516 1382.77C195.686 1404.75 187.867 1426.69 182.326 1449.33C180.566 1456.51 178.632 1463.67 176.699 1470.82C173.532 1482.54 170.365 1494.26 167.966 1506.12C161.322 1538.97 155.808 1572.03 150.995 1605C157.636 1605 163.105 1605 168.905 1603.93C171.638 1588.33 174.244 1573.05 176.826 1557.91C178.913 1545.68 180.983 1533.54 183.091 1521.4C194.023 1458.47 215.616 1398.38 239.855 1339.38C263.227 1282.5 294.979 1229.42 330.561 1178.54C334.508 1172.89 339.48 1171.32 346.193 1170.7C362.532 1169.2 377.688 1173.56 392.822 1177.92C400.592 1180.15 408.357 1182.39 416.273 1183.83C421.489 1184.78 426.694 1185.75 431.896 1186.72C458.877 1191.77 485.749 1196.79 513.395 1198.15C516.245 1198.29 519.134 1198.28 522.061 1198.27C530.155 1198.25 538.544 1198.23 547.228 1201.35C544.411 1205.93 541.628 1210.45 538.871 1214.94C530.83 1228.01 523.004 1240.73 515.2 1253.47C499.468 1278.95 485.344 1305.3 472.903 1332.39C470.367 1337.96 467.876 1343.55 465.386 1349.13C459.538 1362.26 453.691 1375.38 447.25 1388.23C443.465 1395.79 442.35 1402.79 445.52 1410.2C445.944 1411.2 446.368 1412.19 446.792 1413.18C452.735 1427.1 458.687 1441.04 465.407 1454.62C469.663 1463.22 473.972 1471.8 478.282 1480.38ZM953.344 1028.46C958.2 1025.84 963.693 1022.97 964.54 1032.15C966.303 1042.68 959.177 1046.32 953.137 1049.4C952.523 1049.72 951.92 1050.02 951.339 1050.33C933.84 1059.63 914.458 1064.38 894.705 1066.61C846.236 1072.07 797.915 1071.56 750.095 1060.83C740.602 1058.58 731.435 1055.21 722.804 1050.81C717.229 1048.07 714.726 1043.97 716.078 1038.35C717.516 1032.37 721.528 1033.38 725.552 1034.39C726.331 1034.59 727.11 1034.78 727.87 1034.93C734.315 1036.16 740.754 1037.43 747.192 1038.71C763.727 1041.99 780.264 1045.26 796.925 1047.78C831.294 1052.99 866.381 1052 900.366 1044.85L901.297 1044.66C919.321 1040.91 937.1 1037.22 953.344 1028.46Z" fill="black"/>
<path d="M376.995 1605C379.931 1570.09 383.932 1535.17 388.132 1500.28C391.709 1470.56 392.078 1440.24 405.152 1412.25C406.156 1409.92 407.394 1407.69 408.849 1405.59C411.155 1402.48 413.809 1398.84 418.369 1400.36C423.587 1402.09 421.883 1406.84 421.057 1410.26C413.279 1442.44 407.973 1475.08 403.735 1507.81C399.655 1539.31 397.631 1571.06 394.478 1603.85C388.881 1605 383.513 1605 376.995 1605Z" fill="black"/>
<path d="M1323.87 1605C1314.08 1568.68 1311.06 1531.32 1300.59 1495.34C1294.44 1474.25 1290.76 1452.54 1282.71 1431.92C1281.06 1427.71 1282.22 1422.98 1286.65 1420.72C1291.12 1418.44 1294.07 1422.05 1296.57 1425.02C1302.01 1431.48 1304.48 1439.5 1306.5 1447.11C1318.04 1490.54 1327.26 1534.5 1334.11 1578.82C1335.34 1586.77 1335.27 1594.9 1336 1603.97C1332.46 1605 1328.72 1605 1323.87 1605Z" fill="black"/>
<path d="M497.684 351.622C530.884 329.322 562.64 306.682 586.556 275.129C601.133 255.897 613.146 234.446 629.356 216.783C662.12 181.083 698.796 150.028 743.226 128.638C783.111 109.438 825.25 103.206 868.601 98.8227C901.182 95.6024 934.049 96.8245 966.301 102.456C999.173 108.075 1022.81 121.471 1025.06 162.909C1025.59 172.784 1029.32 176.932 1039.1 176.092C1068.16 173.597 1094.58 183.252 1120.05 195.263C1147.06 208.001 1165.75 236.02 1144.91 274.029C1163.78 282.181 1181.66 292.439 1198.22 304.608C1223.99 323.294 1236.83 361.56 1223.57 389.279C1214.03 409.232 1193.87 416.104 1173.67 421.166C1155.55 425.71 1137.38 423.736 1118.71 420.141C1113.14 433.341 1109.67 447.083 1095.35 453.904C1076.74 462.774 1057.75 466.362 1037.31 463.204C1010.97 459.138 986.811 448.03 968.143 430.579C946.043 409.924 922.491 409.726 896.177 414.111C880.498 416.724 864.608 414.795 849.525 411.152C825.243 405.287 801.455 397.333 777.541 389.995C760.408 384.737 747.525 390.348 740.002 406.329C728.331 431.12 728.355 458.486 724.189 484.629C719.539 513.829 709.389 539.36 690.489 561.188C674.189 580.011 669.874 602.441 666.877 625.674C666.017 632.349 667.377 640.12 659.364 643.123C651.07 646.233 647.286 638.982 642.635 634.283C631.075 622.605 627.859 606.872 622.662 592.2C617.239 576.505 609.074 561.898 598.546 549.057C585.946 533.832 573.096 535.19 559.246 548.673C548.464 559.173 544.51 570.664 543.497 584.517C543.451 588.483 541.247 592.109 537.747 593.977C526.247 576.297 513.166 559.472 503.737 540.802C493.422 520.375 480.231 501.754 470.568 480.816C450.146 436.579 457.085 383.29 497.684 351.622Z" fill="black"/>
<path fill-rule="evenodd" clip-rule="evenodd" d="M932.422 803.197C909.38 800.528 885.199 797.728 866.078 817.807C862.031 821.278 859.582 826.257 859.303 831.582C841.108 827.027 827.366 800.427 835.613 784.927C842.237 772.479 855.398 770.348 868.143 768.598C897.104 764.62 924.723 773.586 946.823 788.736C960.049 797.803 970.494 797.391 982.857 796.902C983.703 796.869 984.558 796.835 985.423 796.804C985.687 796.794 985.951 796.784 986.215 796.774C993.169 796.513 1000.26 796.247 1004.49 803.897C1009.11 812.243 1008.71 820.482 1003.04 827.733C996.876 835.626 990.429 843.731 978.059 845.943C974.063 823.727 962.043 806.356 939.643 804.007C937.254 803.756 934.844 803.477 932.422 803.197ZM912.678 836.887C911.18 835.167 909.612 833.492 908.044 831.816C904.466 827.993 900.889 824.17 898.142 819.822C894.234 813.636 889.856 814.455 885.286 817.241C878.395 821.441 870.958 826.101 872.428 835.813C873.328 841.758 877.808 841.407 881.912 841.086C882.959 841.004 883.982 840.924 884.914 840.951C890.619 841.117 896.347 841.024 902.075 840.93C920.036 840.637 937.988 840.344 955.169 848.065C957.211 848.912 959.564 848.378 961.041 846.734C959.752 827.994 933.061 810.865 914.578 817.05C914.51 819.199 915.403 821.366 916.291 823.525C918.177 828.108 920.047 832.651 912.678 836.887Z" fill="white"/>
<path fill-rule="evenodd" clip-rule="evenodd" d="M820.135 787.033C822.99 765.221 852.019 754.792 874.812 754.474C906.296 754.035 935.766 763.603 962.468 780.649C967.411 784.003 973.557 785.068 979.341 783.575C998.651 779.349 1012.07 783.953 1017.45 795.4C1027.76 817.367 1016.95 839.244 1005.75 848.551C985.283 865.57 962.048 865.099 938.517 857.985C927.287 854.458 915.424 853.413 903.751 854.924C871.666 858.965 844.551 849.106 827.174 820.985C820.823 810.881 818.325 798.828 820.135 787.033ZM866.079 817.807C885.2 797.729 909.38 800.528 932.422 803.197C934.844 803.477 937.254 803.756 939.644 804.007C962.044 806.356 974.064 823.727 978.06 845.943C990.43 843.731 996.877 835.626 1003.04 827.733C1008.71 820.482 1009.11 812.243 1004.49 803.897C1000.26 796.247 993.169 796.513 986.215 796.775C985.951 796.785 985.687 796.794 985.424 796.804C984.558 796.835 983.704 796.869 982.858 796.902L982.858 796.902C970.494 797.391 960.049 797.804 946.824 788.736C924.724 773.586 897.105 764.62 868.144 768.598C855.399 770.348 842.238 772.479 835.614 784.927C827.367 800.427 841.109 827.027 859.304 831.582C859.582 826.257 862.031 821.278 866.079 817.807ZM912.678 836.887C911.18 835.167 909.612 833.492 908.044 831.816C904.466 827.993 900.889 824.17 898.143 819.822C894.235 813.636 889.857 814.455 885.287 817.241C878.396 821.441 870.959 826.101 872.429 835.813C873.328 841.758 877.808 841.407 881.912 841.086C882.959 841.004 883.982 840.924 884.915 840.951C890.619 841.117 896.347 841.024 902.075 840.93C920.036 840.637 937.988 840.344 955.17 848.065C957.211 848.912 959.565 848.378 961.042 846.734C959.753 827.994 933.062 810.865 914.579 817.05C914.511 819.199 915.403 821.366 916.291 823.525C918.177 828.108 920.047 832.651 912.678 836.887Z" fill="black"/>
<path d="M1000.76 710.612C992.1 727.077 967.439 736.299 952.277 729.472C948.027 727.558 946.111 723.723 945.341 719.419C944.834 716.794 946.156 714.158 948.563 712.995C953.155 711.03 954.378 715.295 957.171 717.753C964.142 723.883 970.19 718.525 976.242 714.397C981.996 710.472 985.318 705.856 980.474 699.738C970.042 686.56 965.689 670.495 958.674 655.71C955.584 649.197 953.692 642.193 954.893 634.741C955.427 631.423 956.779 629.158 960.507 629.147C963.26 629.139 965.54 629.879 966.387 632.862C973.86 659.185 989.701 681.532 1001.04 706.016C1001.51 707.02 1000.93 708.511 1000.76 710.612Z" fill="black"/>
<path d="M825.129 616.635C830.116 604.597 834.019 587.235 849.214 594.12C869.893 603.493 863.072 624.846 858.89 641.481C857.312 647.758 844.37 657.393 840.636 655.837C824.348 649.046 821.371 634.095 825.129 616.635Z" fill="black"/>
<path d="M1051.96 653.426C1043.38 660.882 1034.99 661.026 1029.82 651.926C1020.7 635.887 1021.2 619.101 1033.14 604.686C1035.63 601.675 1046.89 601.056 1049.42 603.744C1063.36 618.605 1063.96 635.46 1051.96 653.426Z" fill="black"/>
<path d="M830.766 547.895C840.317 537.34 852.602 531.682 862.421 522.89C867.043 518.752 871.891 520.129 875.843 524.529C879.638 528.756 883.124 532.829 878.543 539.006C867.694 553.656 852.243 561.87 835.827 567.266C821.427 571.999 805.966 573.537 790.951 576.361C786.535 577.192 780.776 579.569 779.501 572.685C778.274 566.059 782.664 562.685 788.96 561.474C803.15 558.747 817.438 556.289 830.766 547.895Z" fill="black"/>
<path d="M1063.86 546.023C1075.17 548.083 1081.9 557.045 1091.72 560.179C1095.47 561.373 1100.09 564.856 1098.3 569.724C1096.16 575.524 1090.21 573.989 1086.07 572.624C1072.85 568.245 1059.61 563.741 1046.87 558.16C1034.08 552.56 1021.8 545.76 1009.46 539.176C1003.53 536.013 997.943 531.352 1002.13 523.997C1006.26 516.749 1013.19 514.485 1020.44 520.303C1033.46 530.751 1049.04 536.789 1063.86 546.023Z" fill="black"/>
</svg>
